<svg width="66" height="66" viewBox="0 0 66 66" fill="none" xmlns="http://www.w3.org/2000/svg">
<ellipse cx="33" cy="32.8659" rx="33" ry="32.8659" fill="#194381" fill-opacity="0.12"/>
<path d="M48.0107 42.8352C47.9407 42.5871 47.7772 42.3758 47.5545 42.2459C47.3319 42.116 47.0675 42.0777 46.8171 42.1389L44.3403 42.8053C45.6956 40.8075 46.5174 38.4963 46.7276 36.0913C46.9307 33.8412 46.6017 31.5749 45.7671 29.4755C44.9326 27.3761 43.6158 25.5024 41.9233 24.006C41.7276 23.8441 41.4775 23.7633 41.2241 23.7799C40.9708 23.7966 40.7334 23.9095 40.5606 24.0955C40.3867 24.2934 40.2985 24.5523 40.3153 24.8152C40.332 25.0782 40.4525 25.3237 40.6501 25.498C42.1085 26.7853 43.2432 28.3982 43.9621 30.2058C44.681 32.0134 44.9639 33.9649 44.7879 35.9023C44.6176 37.9429 43.9332 39.9071 42.7986 41.6117L42.5499 39.1151C42.5687 38.9682 42.5544 38.8189 42.5081 38.6782C42.4618 38.5375 42.3846 38.4089 42.2823 38.3018C42.1799 38.1948 42.0549 38.1119 41.9165 38.0593C41.778 38.0067 41.6295 37.9857 41.4819 37.9978C41.3343 38.0099 41.1912 38.0549 41.0632 38.1293C40.9351 38.2038 40.8253 38.3059 40.7418 38.4282C40.6583 38.5506 40.6031 38.69 40.5804 38.8364C40.5576 38.9827 40.5678 39.1323 40.6103 39.2742L41.1076 45.6799L47.3244 44.0288C47.5706 43.9568 47.7795 43.7924 47.9074 43.5699C48.0353 43.3475 48.0723 43.0842 48.0107 42.8352Z" fill="#194381"/>
<path d="M18.9861 33.6842C19.1183 33.7692 19.2678 33.8236 19.4237 33.8433C19.6833 33.8774 19.9459 33.8077 20.1544 33.6494C20.363 33.4911 20.5007 33.257 20.5378 32.9978C20.9488 29.9632 22.491 27.1959 24.8556 25.25C27.2201 23.3041 30.2325 22.3233 33.2895 22.504L31.0614 24.0259C30.9038 24.1446 30.785 24.3076 30.7203 24.4941C30.6556 24.6805 30.6478 24.882 30.6979 25.0729C30.748 25.2638 30.8538 25.4355 31.0018 25.5661C31.1498 25.6967 31.3333 25.7803 31.5289 25.8063C31.753 25.8268 31.9774 25.7707 32.1655 25.6472L37.4672 22.0067L32.9314 17.4511C32.8507 17.3274 32.7435 17.2232 32.6175 17.1462C32.4915 17.0691 32.35 17.0211 32.2031 17.0055C32.0562 16.99 31.9077 17.0073 31.7684 17.0563C31.6291 17.1053 31.5025 17.1847 31.3977 17.2888C31.2928 17.3928 31.2125 17.5189 31.1625 17.6579C31.1125 17.7969 31.0941 17.9452 31.1086 18.0922C31.123 18.2391 31.1701 18.3811 31.2462 18.5076C31.3224 18.6341 31.4257 18.7421 31.5488 18.8237L33.2398 20.5147C29.7095 20.3459 26.2442 21.5067 23.528 23.7681C20.8119 26.0294 19.0422 29.2269 18.5683 32.7293C18.5428 32.9115 18.5684 33.0972 18.6421 33.2658C18.7159 33.4344 18.8349 33.5792 18.9861 33.6842Z" fill="#194381"/>
<path d="M36.3133 46.4658C34.76 46.9619 33.1216 47.1346 31.4991 46.9731C29.523 46.7794 27.6238 46.1076 25.9653 45.0159C24.3069 43.9241 22.9391 42.4451 21.98 40.7066L24.4567 41.6316C24.6851 41.6712 24.92 41.6299 25.1211 41.5147C25.3222 41.3996 25.4767 41.2178 25.5581 41.0009C25.6394 40.7839 25.6425 40.5453 25.5667 40.3264C25.491 40.1074 25.3411 39.9217 25.1431 39.8014L20.5775 38.1105L19.1153 37.5833L18.0112 43.8995C17.973 44.1519 18.0332 44.4093 18.1795 44.6186C18.3257 44.8278 18.5469 44.9728 18.797 45.0235H18.9661C19.2002 45.0277 19.4283 44.9493 19.6103 44.8019C19.7922 44.6545 19.9164 44.4477 19.9608 44.2178L20.3786 41.8306C21.5036 43.8013 23.0838 45.4743 24.9872 46.7098C26.8906 47.9452 29.062 48.7074 31.32 48.9326C33.2079 49.1197 35.114 48.9165 36.92 48.3358C37.15 48.2405 37.3359 48.0626 37.441 47.837C37.5462 47.6114 37.5629 47.3546 37.488 47.1172C37.413 46.8799 37.2518 46.6793 37.0362 46.555C36.8206 46.4307 36.5662 46.3918 36.3232 46.4459L36.3133 46.4658Z" fill="#194381"/>
<path d="M36.5818 29.6259H28.6244C28.3606 29.6259 28.1076 29.7307 27.9211 29.9172C27.7346 30.1038 27.6298 30.3568 27.6298 30.6206V38.578C27.6298 38.8418 27.7346 39.0948 27.9211 39.2813C28.1076 39.4679 28.3606 39.5727 28.6244 39.5727H36.5818C36.8456 39.5727 37.0986 39.4679 37.2852 39.2813C37.4717 39.0948 37.5765 38.8418 37.5765 38.578V30.6206C37.5765 30.3568 37.4717 30.1038 37.2852 29.9172C37.0986 29.7307 36.8456 29.6259 36.5818 29.6259ZM35.5872 37.5833H29.6191V31.6153H35.5872V37.5833Z" fill="#194381"/>
</svg>
